<?xml version="1.0" encoding="utf-8"?>
<!DOCTYPE svg PUBLIC "-//W3C//DTD SVG 1.1//EN" "http://www.w3.org/Graphics/SVG/1.1/DTD/svg11.dtd">
<svg version="1.1" id="Layer_1" xmlns="http://www.w3.org/2000/svg" xmlns:xlink="http://www.w3.org/1999/xlink" x="0px" y="0px"
	 width="600px" height="440px" viewBox="0 150 600 440" style="enable-background:new 0 0 612 792;" xml:space="preserve">
<defs>
	<style type="text/css">
	<![CDATA[
		.st0{fill:#515151;}
		#thumb-print {
      animation: App-logo-throb-print infinite 30s ease-in-out;
      transform-origin: 50% 50%;
    }
    #play-button {
      animation: App-logo-throb-play infinite 30s ease-in-out;
			fill:#b43665;
      transform-origin: 50% 50%;
    }
		@keyframes App-logo-color-play {
			0% { fill: #77b3bb; }
			25% { fill: #b43665; }
			50% { fill: #b1c647 }
			75% { fill: #b43665; }
			100% { fill: #77b3bb; }
		}

		@keyframes App-logo-throb-print {
      0% { transform: scale(0.9); }
      5% { transform: scale(1.0); }
      10% { transform: scale(0.9); }
      100% { transform: scale(0.9); }
    }
    @keyframes App-logo-throb-play {
      0% { transform: scale(0.9); }
      5% { transform: scale(1.2); }
      10% { transform: scale(0.9); }
      100% { transform: scale(0.9); }
    }
	]]>
	</style>
</defs>
<g id="thumb-print">
	<path class="st0" d="M432.268,571.011l0.816-0.309l1.644-0.618l0.739-0.289l0.048-0.021l2.92-1.155l0.839-0.326l0.109-0.042
		l1.319-0.547l0.659-0.28l0.042-0.019c25.666-11.058,48.614-26.857,67.788-46.258c19.238-19.423,34.773-42.599,45.478-68.345
		c10.79-25.853,16.605-54.223,16.456-83.491l0.002-0.012l0.001-0.044l-0.005-0.169c-0.186-29.302-6.337-57.588-17.417-83.333
		c-11.019-25.603-26.813-48.6-46.344-67.871l-0.214-0.214c-2.551-2.52-6.662-2.499-9.188,0.053
		c-2.521,2.553-2.498,6.666,0.048,9.189l0.009,0.001l0.213,0.217c18.349,18.106,33.189,39.707,43.545,63.762
		c10.396,24.172,16.185,50.746,16.362,78.281v0.161l0.001,0.041l-0.001,0.009c0.141,27.495-5.328,54.142-15.463,78.423
		c-10.062,24.184-24.651,45.959-42.718,64.201c-18.021,18.233-39.577,33.082-63.689,43.472l0.04-0.025l-0.626,0.27l-1.261,0.521
		l-0.754,0.3l-2.924,1.151l0.05-0.019l-0.711,0.271l-1.587,0.6l-0.798,0.302l0,0c-10.446,3.752-19.911,8.534-27.982,13.758
		c-3.004,1.939-3.878,5.962-1.925,8.978c1.948,3.019,5.967,3.878,8.976,1.932c7.257-4.688,15.905-9.073,25.41-12.465
		L432.268,571.011z M395.38,158.827c-1.908,3.037-1.002,7.049,2.034,8.963c8.138,5.126,17.671,9.821,28.202,13.444l-0.067-0.02
		l0.876,0.308l1.473,0.545l0.047,0.017l0.595,0.213l2.863,1.095l-0.049-0.025l0.626,0.249l1.354,0.536l0.784,0.327
		c16.198,6.741,31.281,15.5,44.911,25.927c2.854,2.182,6.928,1.637,9.108-1.21c2.181-2.85,1.638-6.931-1.216-9.111
		c-14.513-11.101-30.563-20.427-47.812-27.605l-0.819-0.338l-0.102-0.04l-1.455-0.577l-0.659-0.258l-0.046-0.019l-2.939-1.12
		l-0.107-0.042l-0.619-0.224l-1.089-0.4c-0.039-0.017-0.064-0.036-0.1-0.055l-0.08-0.027l0,0l-0.017-0.005l-0.011-0.007
		l-0.183-0.068l-0.28-0.104c-0.054-0.017-0.106-0.019-0.166-0.039l-0.538-0.19l-0.063-0.022
		c-9.536-3.279-18.205-7.556-25.497-12.148C401.308,154.882,397.294,155.793,395.38,158.827z M494.686,427.845
		c-7.465,17.941-18.285,34.091-31.692,47.626c-13.351,13.517-29.34,24.522-47.206,32.234l-1.276,0.523l-2.816,1.113l-1.571,0.595
		l0,0c-21.691,7.809-40.592,18.887-55.549,31.543c-12.408,10.472-22.101,21.985-29.094,33.656c-1.834,3.078-0.839,7.073,2.243,8.914
		c3.077,1.839,7.065,0.845,8.911-2.239c6.199-10.353,14.955-20.805,26.317-30.412c13.721-11.606,31.362-21.991,51.658-29.269
		l0.101-0.039l1.629-0.616l0.082-0.031l2.928-1.156l0.102-0.044l1.328-0.549l0.076-0.028c19.453-8.372,36.847-20.36,51.38-35.05
		c14.569-14.73,26.331-32.275,34.448-51.779c8.171-19.594,12.587-41.046,12.468-63.25l-0.002-0.119l-0.001-0.04
		c0,0,0-0.011,0.001-0.013c-0.137-22.228-4.808-43.636-13.189-63.124c-8.352-19.4-20.32-36.826-35.103-51.412
		c-14.646-14.496-32.175-26.279-51.72-34.417l-0.104-0.038l-1.458-0.579l-0.076-0.031l-2.935-1.12l-0.08-0.031l-1.508-0.554
		l-0.113-0.039c-20.379-7.042-38.128-17.21-51.97-28.66c-11.465-9.456-20.345-19.803-26.684-30.111
		c-1.878-3.056-5.881-4.008-8.936-2.13c-3.058,1.881-4.013,5.882-2.133,8.941l0,0c7.146,11.602,16.971,23.004,29.482,33.316
		c15.092,12.475,34.1,23.335,55.877,30.88l0,0l0.062,0.023c0.023,0.006,0.037,0.015,0.052,0.022l0,0l1.317,0.481l0,0l2.894,1.104
		l1.311,0.522l0,0c17.991,7.483,34.116,18.33,47.585,31.66c13.608,13.424,24.622,29.456,32.308,47.304
		c7.705,17.929,11.994,37.611,12.123,58.069l0.011,0.001c0.002,0.039-0.01,0.069-0.008,0.107l-0.001,0.05l0,0
		C506.262,390.094,502.209,409.818,494.686,427.845z M355.794,166.571c3.994,4.491,8.454,8.771,13.359,12.814
		c13.464,11.127,29.979,20.183,47.957,26.407l0.357,0.123l1.431,0.521l0,0l0.357,0.138l2.908,1.113l-0.053-0.021l1.619,0.639l0,0
		l0.42,0.169c20.983,8.748,39.759,21.23,55.859,37.168c16.142,15.941,28.886,34.607,37.886,55.51
		c1.555,3.616,2.987,7.27,4.284,10.955c1.199,3.379,4.908,5.156,8.287,3.959c3.389-1.195,5.16-4.903,3.958-8.287
		c-1.391-3.958-2.93-7.883-4.598-11.766c-9.647-22.419-23.358-42.515-40.688-59.611c-17.274-17.113-37.511-30.559-60.025-39.934
		l-0.043-0.021l-0.439-0.179l-0.071-0.032l-1.698-0.666l-0.037-0.014c-0.029-0.011-0.058-0.036-0.096-0.045l-0.198-0.079
		c-0.029-0.009-0.063-0.012-0.099-0.029l-2.553-0.976l-0.394-0.153l-0.062-0.017l-1.51-0.552l-0.107-0.04l-0.457-0.158
		c-16.603-5.738-31.819-14.132-43.925-24.145c-4.426-3.647-8.404-7.47-11.926-11.427c-2.383-2.68-6.488-2.925-9.168-0.542
		C353.646,159.782,353.407,163.889,355.794,166.571z M419.333,534.23l-0.39,0.146l0,0c-17.876,6.432-34.281,15.678-47.584,26.938
		c-4.761,4.014-9.089,8.254-12.958,12.677c-2.368,2.702-2.088,6.804,0.611,9.165c2.698,2.362,6.801,2.09,9.165-0.609
		c3.418-3.9,7.273-7.683,11.579-11.319c11.958-10.132,27.1-18.71,43.639-24.643l0.069-0.026l0.426-0.158l1.656-0.625l0.05-0.021
		l0.339-0.125l2.964-1.18l0.38-0.147l0.152-0.062l1.31-0.539l0.196-0.088l0.31-0.142l0,0c22.358-9.632,42.394-23.305,59.457-40.584
		c17.135-17.319,30.604-37.548,39.971-60.046c9.725-23.319,14.607-48.054,14.467-73.581c-0.071-12.028-1.272-23.901-3.583-35.537
		c-0.704-3.521-4.114-5.807-7.64-5.11c-3.516,0.699-5.809,4.117-5.109,7.635l0,0c2.153,10.83,3.274,21.878,3.34,33.085
		c0.118,23.827-4.411,46.765-13.472,68.508c-8.729,20.974-21.238,39.757-37.218,55.911c-15.939,16.132-34.575,28.854-55.47,37.842
		l-0.127,0.053l-0.208,0.089l-1.133,0.48l-0.358,0.131l-2.961,1.182l-0.307,0.113l0.05-0.026L419.333,534.23z M271.466,584.933
		c-3.371-1.215-5.137-4.93-3.923-8.302c2.085-5.846,4.537-11.591,7.347-17.225c10.526-21.1,26.153-40.748,46.129-57.629
		c19.928-16.84,44.138-30.867,71.416-40.704l0,0l2.814-1.119c11.646-5.018,22.06-12.187,30.773-21.02
		c8.759-8.84,15.812-19.355,20.694-31.083c4.87-11.661,7.534-24.61,7.461-37.893h0.015c0-0.03,0.005-0.059,0.007-0.083l-0.023-0.001
		l-0.002-0.082c-0.074-13.297-2.896-26.201-7.896-37.818c-5.011-11.655-12.189-22.096-21.072-30.859
		c-6.666-6.598-14.295-12.244-22.692-16.721c-3.164-1.685-4.365-5.62-2.683-8.79c1.688-3.166,5.626-4.366,8.791-2.675
		c9.519,5.071,18.175,11.474,25.717,18.941c10.057,9.927,18.188,21.763,23.879,34.964c5.675,13.186,8.852,27.767,8.945,42.836
		l0.002-0.002l0.003,0.004l-0.003,0.042l0.004,0.129c0,0,0.003,0.011,0,0.016v0.023c0.081,15.071-2.933,29.715-8.456,42.971
		c-5.532,13.271-13.535,25.2-23.45,35.219c-9.896,10.013-21.715,18.155-34.94,23.843l-0.165,0.067l-2.924,1.159l-0.205,0.077
		c-25.948,9.338-48.896,22.658-67.618,38.48c-18.741,15.835-33.232,34.124-42.895,53.494c-2.585,5.196-4.833,10.458-6.747,15.805
		C278.556,584.375,274.848,586.138,271.466,584.933z M454.184,370.169L454.184,370.169l-0.005,0L454.184,370.169z M265.184,165.294
		c2.152,5.805,4.663,11.511,7.536,17.116c10.77,20.966,26.623,40.439,46.798,57.088c17.062,14.098,37.182,26.133,59.62,35.275
		c3.326,1.357,7.111-0.244,8.466-3.565c1.357-3.322-0.245-7.112-3.565-8.467c-21.259-8.661-40.25-20.048-56.249-33.263
		c-18.918-15.61-33.62-33.745-43.51-52.996c-2.637-5.154-4.946-10.395-6.916-15.707c-1.24-3.363-4.982-5.079-8.345-3.833
		C265.652,158.187,263.932,161.929,265.184,165.294z M307.653,581.279c0.675-1.51,1.387-3.014,2.127-4.485
		c3.799-7.621,8.441-14.963,13.899-21.992c2.207-2.828,1.691-6.909-1.141-9.118c-2.828-2.198-6.916-1.693-9.115,1.143
		c-5.964,7.677-11.076,15.746-15.275,24.161c-0.823,1.658-1.6,3.315-2.348,4.974c-1.472,3.271-0.007,7.111,3.261,8.586
		C302.334,586.021,306.188,584.555,307.653,581.279z M405.827,497.685c0.383-0.139,0.757-0.277,1.14-0.438l2.898-1.165l0.092-0.032
		l0.559-0.241l0.049-0.021c16.215-6.951,30.773-16.867,43.189-29.44c6.533-6.606,12.326-13.796,17.341-21.509
		c1.955-3.009,1.101-7.038-1.901-8.996c-3.014-1.952-7.033-1.104-8.99,1.907c-4.54,6.97-9.777,13.478-15.693,19.461
		c-11.252,11.392-24.363,20.321-39.046,26.629l-0.486,0.211l-2.872,1.147l-0.694,0.265c-23.671,8.514-45.629,20.962-63.62,36.163
		c-2.067,1.739-4.087,3.519-6.041,5.327c-2.636,2.439-2.799,6.546-0.358,9.188c2.434,2.628,6.543,2.792,9.176,0.364
		c1.811-1.678,3.682-3.33,5.601-4.951C362.841,517.458,383.533,505.697,405.827,497.685z M296.608,156.952
		c3.251-1.5,7.113-0.074,8.618,3.186c0.698,1.51,1.425,3.021,2.186,4.506c8.438,16.416,20.809,31.497,36.916,44.79
		c16.853,13.925,37.649,25.444,60.034,33.2l0.093,0.032l0.749,0.269l0.094,0.036l2.927,1.119l0.139,0.051l0.74,0.303l0.039,0.018
		c16.291,6.778,30.95,16.539,43.493,28.943c12.533,12.401,22.456,26.938,29.447,43.141c7.236,16.831,10.977,34.709,11.08,53.049
		l-0.004,0.065l0.004,0.099c0.098,17.296-3.194,34.776-9.561,50.859c-1.315,3.34-5.088,4.973-8.43,3.649
		c-3.336-1.318-4.97-5.098-3.646-8.432c5.737-14.491,8.731-30.378,8.644-45.958l-0.003-0.126l-0.001-0.082
		c-0.096-16.628-3.465-32.729-10.015-47.98c-6.344-14.688-15.295-27.805-26.65-39.048c-11.378-11.237-24.578-20.03-39.336-26.177
		l-0.631-0.256l-2.855-1.09l-0.665-0.244l0.001-0.001c-23.75-8.246-45.808-20.428-63.961-35.417
		c-17.302-14.277-30.877-30.728-40.207-48.887c-0.846-1.654-1.655-3.322-2.427-4.999l0,0
		C291.919,162.312,293.349,158.455,296.608,156.952z M480.176,370.031L480.176,370.031L480.176,370.031L480.176,370.031z
		 M210.633,165.003c3.29,12.437,7.771,24.485,13.327,36.062c1.547,3.237,5.43,4.599,8.663,3.05c3.237-1.553,4.6-5.436,3.045-8.67
		l0.005,0c-5.213-10.861-9.403-22.144-12.48-33.767c-0.917-3.467-4.478-5.536-7.944-4.617
		C211.785,157.977,209.712,161.535,210.633,165.003z M379.431,424.317l0.362-0.143c6.984-3,13.25-7.322,18.513-12.632
		c5.257-5.32,9.505-11.644,12.417-18.655c2.924-7.021,4.516-14.732,4.471-22.791c-0.046-8.054-1.727-15.75-4.729-22.73
		c-2.995-6.981-7.317-13.262-12.635-18.511c-5.318-5.256-11.638-9.5-18.654-12.423l-0.363-0.136
		c-31.677-10.989-60.188-26.978-84.117-46.73c-18.553-15.317-34.347-32.901-46.74-52.17c-1.943-3.018-5.957-3.89-8.977-1.948
		c-3.02,1.939-3.893,5.962-1.95,8.979c13.167,20.466,29.868,39.037,49.397,55.155c25.097,20.719,54.855,37.394,87.807,48.873
		c5.431,2.261,10.329,5.552,14.46,9.642c4.148,4.088,7.507,8.975,9.835,14.4c2.326,5.418,3.64,11.378,3.675,17.673
		c0.034,6.302-1.205,12.27-3.471,17.721c-2.266,5.45-5.567,10.374-9.66,14.513c-4.098,4.139-8.968,7.494-14.387,9.823
		c-7.412,2.672-14.662,5.608-21.733,8.806c-3.269,1.477-4.722,5.321-3.247,8.596c1.479,3.264,5.327,4.723,8.59,3.242h0.008
		C365.16,429.777,372.21,426.914,379.431,424.317z M225.604,580.706c3.374-13.378,8.224-26.329,14.412-38.718
		c13.078-26.208,32.145-49.95,55.842-69.985c12.125-10.24,25.45-19.508,39.81-27.646c3.118-1.764,4.216-5.733,2.448-8.854
		c-1.771-3.119-5.741-4.219-8.858-2.445c-15.033,8.518-29.028,18.253-41.786,29.025c-24.942,21.083-45.147,46.185-59.086,74.104
		c-6.583,13.197-11.769,27.021-15.381,41.331c-0.883,3.482,1.232,7.016,4.704,7.899
		C221.192,586.289,224.716,584.178,225.604,580.706z M383.861,436.534c-29.86,10.746-56.661,26.004-79.625,45.4
		c-22.566,19.07-40.309,41.249-52.6,65.855c-4.736,9.495-8.618,19.317-11.576,29.296c-1.018,3.438,0.944,7.054,4.379,8.077
		c3.439,1.019,7.057-0.943,8.071-4.384c2.744-9.234,6.352-18.355,10.757-27.182c11.447-22.929,28.012-43.695,49.355-61.736
		c21.721-18.346,47.133-32.845,75.605-43.092c0.619-0.217,1.23-0.472,1.794-0.712c10.04-4.31,19.069-10.462,26.763-18.258
		c7.682-7.753,13.731-16.845,17.93-26.939c4.348-10.462,6.531-21.564,6.464-32.919c-0.062-11.347-2.368-22.427-6.844-32.819
		c-4.307-10.031-10.452-19.062-18.258-26.771c-7.784-7.678-16.862-13.731-26.941-17.907c-0.574-0.239-1.186-0.48-1.842-0.702
		c-28.583-9.919-54.158-24.143-76.063-42.227c-21.55-17.778-38.342-38.354-50.06-61.163c-4.509-8.757-8.221-17.853-11.083-27.099
		c-1.059-3.428-4.692-5.351-8.126-4.289c-3.429,1.057-5.344,4.696-4.283,8.123c3.084,9.984,7.085,19.775,11.935,29.205
		c12.569,24.476,30.56,46.448,53.345,65.246c23.158,19.115,50.13,34.084,80.106,44.486c0.35,0.119,0.714,0.261,1.109,0.423
		c8.513,3.537,16.153,8.626,22.773,15.153c6.622,6.541,11.789,14.129,15.454,22.647c3.785,8.818,5.729,18.128,5.787,27.764
		c0.055,9.645-1.786,18.98-5.47,27.855c-3.567,8.564-8.657,16.208-15.174,22.799c-6.538,6.624-14.134,11.803-22.631,15.445
		C384.537,436.276,384.177,436.419,383.861,436.534z M17.609,404.441c3.607-10.196,5.44-21.026,5.388-31.892l0,0l-0.002-0.07l0,0
		c0.001-0.042,0-0.103-0.008-0.228c-0.089-10.997-2.024-21.785-5.742-31.935c-1.232-3.372-4.962-5.104-8.326-3.872
		c-3.376,1.235-5.11,4.969-3.874,8.338c3.213,8.771,4.889,18.115,4.951,27.702l0.002,0.032l0,0.036
		c0.051,9.386-1.523,18.766-4.632,27.547c-1.198,3.387,0.571,7.098,3.954,8.293C12.705,409.587,16.416,407.817,17.609,404.441z
		 M41.919,475.76c3.775-9.175,7.875-18.18,12.286-26.986c1.139-2.282,2.474-4.918,3.979-7.756
		c11.267-21.338,16.913-45.095,16.779-68.94c-0.146-23.945-6.052-47.579-17.556-68.79c-1.57-2.903-2.987-5.605-4.215-7.983
		c-4.46-8.667-8.614-17.529-12.46-26.564c-1.403-3.307-5.222-4.843-8.522-3.437c-3.301,1.4-4.839,5.218-3.436,8.519
		c3.97,9.333,8.268,18.479,12.869,27.421c1.26,2.449,2.718,5.235,4.34,8.233c10.463,19.293,15.856,40.821,15.991,62.677
		c0.124,21.741-5.043,43.397-15.283,62.798c-1.56,2.947-2.938,5.673-4.106,8c-4.552,9.101-8.782,18.395-12.681,27.86
		c-1.364,3.319,0.221,7.119,3.538,8.48C36.756,480.654,40.558,479.071,41.919,475.76z M42.666,373.986
		c3.586-0.177,6.354-3.218,6.176-6.801l0,0c-0.866-18.068-5.742-35.764-14.286-51.511c-1.644-3.019-3.123-5.888-4.438-8.419
		l0.011,0.015c-1.231-2.394-2.438-4.798-3.627-7.21c-1.574-3.22-5.473-4.546-8.695-2.966c-3.214,1.58-4.545,5.475-2.963,8.696
		c1.215,2.476,2.46,4.944,3.725,7.417l0.01,0.014c1.312,2.54,2.843,5.495,4.562,8.654c7.583,13.967,11.95,29.788,12.727,45.931
		C36.036,371.389,39.082,374.153,42.666,373.986z M27.335,444.567c1.193-2.495,2.394-4.97,3.624-7.421
		c1.24-2.457,2.662-5.27,4.257-8.293c5.668-10.733,9.645-22.346,11.825-34.344c0.642-3.527-1.707-6.909-5.232-7.55
		c-3.531-0.644-6.914,1.702-7.553,5.228c-1.945,10.711-5.498,21.074-10.528,30.592c-1.662,3.149-3.126,6.048-4.383,8.542
		c-1.268,2.542-2.515,5.083-3.741,7.658c-1.537,3.239-0.163,7.115,3.071,8.655C21.914,449.182,25.793,447.804,27.335,444.567z
		 M91.656,284.694c8.056,14.844,13.937,30.597,17.629,46.791c0.798,3.5,4.277,5.691,7.779,4.892c3.5-0.797,5.683-4.28,4.892-7.776
		v-0.005c-3.955-17.331-10.254-34.195-18.882-50.104c-1.32-2.434-2.534-4.753-3.668-6.973c-8.397-16.303-15.565-33.383-21.35-51.081
		c-1.113-3.411-4.778-5.275-8.192-4.161c-3.411,1.114-5.273,4.785-4.16,8.195c6.002,18.37,13.442,36.08,22.146,52.982
		C89.012,279.727,90.269,282.141,91.656,284.694z M79.806,523.611c5.593-17.789,12.575-34.982,20.787-51.42
		c1.098-2.172,2.284-4.515,3.556-6.924c15.344-29.073,22.965-61.273,22.79-93.506c-0.034-5.562-0.302-11.111-0.796-16.643
		c-0.322-3.572-3.476-6.211-7.046-5.893c-3.577,0.314-6.215,3.475-5.896,7.049c0.461,5.171,0.713,10.363,0.746,15.563
		c0.161,30.139-6.962,60.233-21.287,87.37c-1.333,2.52-2.563,4.942-3.673,7.142l-0.006,0.021
		c-8.522,17.045-15.768,34.883-21.567,53.347c-1.078,3.423,0.819,7.072,4.246,8.145C75.087,528.935,78.73,527.031,79.806,523.611z
		 M59.714,501.841L59.714,501.841c5.04-14.038,10.95-27.869,17.626-41.261c1.194-2.371,2.459-4.84,3.8-7.379
		c13.133-24.899,19.96-52.972,19.813-81.295c-0.179-28.339-7.326-56.329-20.722-81.02c-1.404-2.599-2.698-5.087-3.934-7.465
		l0.004,0.016c-6.815-13.252-12.86-26.962-18.043-40.91c-1.256-3.36-4.994-5.073-8.356-3.825c-3.37,1.25-5.08,4.988-3.833,8.354
		c5.371,14.435,11.626,28.616,18.684,42.327l0.008,0.018c1.239,2.392,2.57,4.953,4.049,7.674
		c12.36,22.777,18.992,48.703,19.148,74.903c0.148,26.186-6.187,52.185-18.301,75.151c-1.398,2.64-2.705,5.186-3.923,7.606
		l-0.012,0.023c-6.912,13.853-13.027,28.154-18.236,42.706c-1.207,3.371,0.547,7.096,3.925,8.3
		C54.788,506.979,58.505,505.221,59.714,501.841z M125.903,219.614c3.383-1.202,5.148-4.917,3.95-8.298l0,0
		c-2.75-7.728-5.181-15.599-7.279-23.595c-0.91-3.472-4.465-5.544-7.936-4.633c-3.471,0.91-5.543,4.464-4.636,7.931
		c2.195,8.356,4.74,16.578,7.607,24.648C118.81,219.047,122.521,220.817,125.903,219.614z M124.697,555.818
		c5.265-21.043,12.82-41.249,22.334-60.297c1.005-1.998,2.022-3.989,3.084-5.994c19.422-36.813,29.014-77.446,28.791-118.076
		c-0.243-40.647-10.301-81.167-30.166-117.78c-1.066-1.965-2.102-3.938-3.134-5.946c-2.176-4.219-4.252-8.499-6.225-12.834
		c-1.487-3.267-5.343-4.706-8.602-3.217c-3.272,1.487-4.708,5.339-3.219,8.607c2.059,4.523,4.228,8.989,6.496,13.393
		c1.057,2.062,2.138,4.121,3.266,6.197c18.821,34.689,28.363,73.096,28.59,111.653c0.213,38.536-8.888,77.06-27.29,111.934
		c-1.119,2.114-2.176,4.188-3.207,6.242c-9.938,19.891-17.817,40.98-23.328,62.967c-0.875,3.481,1.248,7.008,4.723,7.877
		C120.295,561.413,123.82,559.3,124.697,555.818z M114.491,272.275l-0.013-0.016c16.429,30.281,25.245,64.692,25.442,99.404
		c0.189,32.943-7.364,65.682-21.839,94.9c-1.595,3.217-0.275,7.111,2.935,8.704c3.219,1.593,7.112,0.275,8.704-2.938l0.006-0.001
		c15.38-31.053,23.389-65.767,23.189-100.74c-0.213-36.859-9.551-73.331-27.016-105.528l-0.01-0.02
		c-1.133-2.067-2.248-4.199-3.358-6.367c-9.483-18.402-17.151-37.659-22.885-57.374c-1.003-3.447-4.609-5.425-8.053-4.426
		c-3.445,1.001-5.426,4.61-4.424,8.056c5.967,20.522,13.949,40.55,23.804,59.691C112.115,267.839,113.28,270.069,114.491,272.275z
		 M101.612,541.477c4.366-15.699,9.959-31.121,16.7-46.064c1.483-3.272,0.024-7.125-3.242-8.6c-3.268-1.474-7.112-0.021-8.59,3.248
		c-7.021,15.548-12.84,31.592-17.385,47.931c-0.956,3.459,1.061,7.035,4.516,8.008C97.072,546.96,100.65,544.939,101.612,541.477z
		 M173.652,574.545l0.004,0.003c4.337-19.471,11.074-38.188,19.859-55.774c0.843-1.681,1.696-3.348,2.572-5.008
		c23.484-44.518,35.062-93.604,34.78-142.611c-0.279-49.015-12.429-97.965-36.422-142.216c-0.891-1.642-1.762-3.306-2.627-4.978
		c-8.985-17.476-15.935-36.107-20.496-55.522c-0.819-3.491-4.316-5.658-7.809-4.841c-3.494,0.821-5.662,4.32-4.844,7.814
		c4.815,20.473,12.133,40.097,21.599,58.49c0.901,1.755,1.816,3.495,2.754,5.224c22.952,42.334,34.584,89.179,34.85,136.102
		c0.273,46.914-10.817,93.894-33.281,136.48c-0.919,1.741-1.818,3.498-2.7,5.262c-9.248,18.499-16.35,38.222-20.92,58.751
		c-0.78,3.508,1.428,6.978,4.929,7.76C169.408,580.26,172.874,578.048,173.652,574.545z M160.186,247.523
		c21,38.733,31.619,81.262,31.863,123.865c0.109,18.818-1.811,37.654-5.757,56.18c-0.746,3.501,1.493,6.96,5.002,7.704
		c3.502,0.751,6.958-1.489,7.708-4.998l0.004,0.003c4.137-19.441,6.154-39.212,6.042-58.965
		c-0.258-44.711-11.414-89.353-33.439-129.977c-0.966-1.781-1.933-3.614-2.881-5.454c-9.769-18.981-17.225-38.952-22.209-59.412
		c-0.84-3.489-4.355-5.626-7.847-4.779c-3.481,0.851-5.625,4.364-4.774,7.853c5.223,21.468,13.043,42.397,23.282,62.292
		C158.168,243.752,159.173,245.658,160.186,247.523z M148.771,566.779l0.004-0.001c4.743-20.509,11.966-40.552,21.493-59.621
		c0.944-1.884,1.891-3.735,2.854-5.565c7.777-14.736,14.136-29.994,19.069-45.575c1.086-3.417-0.809-7.07-4.226-8.152
		c-3.418-1.087-7.078,0.809-8.161,4.233c-4.702,14.846-10.764,29.385-18.178,43.441c-1.012,1.921-1.99,3.842-2.978,5.797
		c-9.992,19.993-17.564,40.996-22.535,62.519c-0.811,3.497,1.375,6.983,4.867,7.784
		C144.474,572.454,147.967,570.273,148.771,566.779z"/>
	<path class="st0" d="M184.548,167.902c2.13,8.055,7.151,30.526,20.198,52.91c7.644,13.122,23.858,35.479,28.014,44.823
		c1.458,3.281,5.432,4.6,8.664,3.047c3.238-1.549,4.601-5.434,3.049-8.667l0.004-0.001c-5.233-12.27-22.93-34.228-29.755-45.5
		c-13.259-21.906-15.629-42.443-17.614-49.939c-0.915-3.468-4.475-5.535-7.941-4.619
		C185.698,160.873,183.627,164.433,184.548,167.902z"/>
	<path class="st0" d="M187.547,575.516c-0.568,2.12,0.616,7.007,5.063,8.041c4.302,0.999,6.936-3.123,7.561-5.139
		c6.015-19.397,11.963-40.549,21.492-59.62c0.941-1.884,1.888-3.729,2.851-5.563c7.781-14.738,10.193-17.548,15.13-33.129
		c1.087-3.423-0.808-7.072-4.228-8.156c-3.418-1.081-7.075,0.811-8.159,4.232c-4.7,14.853-6.82,16.942-14.238,30.995
		c-1.011,1.921-1.989,3.847-2.979,5.802C200.052,532.973,192.518,553.989,187.547,575.516"/>
	<path class="st0" d="M576.361,431.173l0.006-0.003c-4.186,13.724-9.496,26.976-15.829,39.603
		c-8.188,16.358-18.05,31.646-29.354,45.664c-2.254,2.794-1.81,6.884,0.977,9.139c2.797,2.254,6.886,1.807,9.137-0.978
		c11.889-14.737,22.261-30.819,30.849-48.001c6.678-13.283,12.257-27.217,16.648-41.651c1.042-3.431-0.889-7.055-4.321-8.091
		C581.035,425.804,577.409,427.729,576.361,431.173z"/>
	<path class="st0" d="M533.54,223.164c10.716,14.458,19.938,30.112,27.438,46.737c13.635,30.215,21.487,63.521,22.313,98.159
		l0.008,0.149l-0.004,0.096c0.261,11.151-0.234,22.208-1.412,33.106c-0.386,3.581,2.192,6.779,5.753,7.172
		c3.57,0.378,6.778-2.199,7.162-5.762c1.243-11.459,1.759-23.086,1.496-34.814l-0.003-0.099l-0.003-0.159
		c-0.884-36.403-9.123-71.422-23.468-103.195c-7.885-17.474-17.579-33.924-28.844-49.126c-2.13-2.881-6.196-3.485-9.089-1.351
		C532.008,216.213,531.396,220.282,533.54,223.164z"/>
</g>
<g id="play-button">
	<path class="st1" d="M284.279,432.176c28.086-23.707,60.52-42.459,96.492-55.764c2.557-0.951,4.256-3.407,4.24-6.132
		c-0.016-2.729-1.741-5.17-4.312-6.083c-33.446-11.955-74.142-37.16-100.648-61.89c-2.624-2.45-6.913-1.708-9.118,1.121
		c-2.215,2.826-1.464,6.626,1.116,9.117c22.415,21.659,60.076,46.091,88.708,57.862c-31.196,13.235-59.699,30.606-84.863,51.849
		c-9.328,7.877-18.08,16.192-26.23,24.933c-2.447,2.622-2.306,6.731,0.319,9.185c2.616,2.446,6.731,2.305,9.184-0.321l0,0
		C266.956,447.697,275.334,439.733,284.279,432.176z"/>
	<path class="st1" d="M250.775,286.239c-0.932-3.468-4.496-5.519-7.959-4.588c-3.463,0.935-5.52,4.501-4.588,7.964
		c0.076,0.271,0.147,0.544,0.22,0.817c7.125,26.382,10.847,53.504,10.999,80.615c0.082,13.603-0.652,27.184-2.34,40.663
		c-0.445,3.553,2.078,6.806,5.639,7.257c3.56,0.442,6.803-2.078,7.251-5.641l0.002,0.001c1.768-14.086,2.523-28.236,2.442-42.353
		c-0.162-28.253-4.033-56.479-11.444-83.926C250.924,286.782,250.849,286.509,250.775,286.239z"/>
	<path class="st1" d="M282.041,359.719c-3.59-0.001-6.495,2.92-6.482,6.503c0.004,6.812-0.17,13.57-0.562,20.309
		c0,0,0.024,0.451-0.435,6.48c-0.194,2.61,2.764,4.143,4.974,2.746c2.641-1.655,5.307-3.278,5.307-3.278
		c2.985-1.802,6-3.548,9.024-5.251c3.025-1.703,6.079-3.363,9.154-4.965c3.177-1.664,4.404-5.586,2.744-8.771
		c-1.66-3.176-5.583-4.404-8.767-2.74l0,0c-2.872,1.502-5.729,3.057-8.563,4.639c0.069-3.066,0.112-6.124,0.106-9.195
		C288.534,362.612,285.623,359.71,282.041,359.719z"/>
</g>
</svg>
